<?xml version="1.0" encoding="utf-8"?>
<!-- Generator: Adobe Illustrator 18.1.1, SVG Export Plug-In . SVG Version: 6.00 Build 0)  -->
<svg version="1.1" id="Layer_1" xmlns="http://www.w3.org/2000/svg" xmlns:xlink="http://www.w3.org/1999/xlink" x="0px" y="0px"
	 viewBox="0 19 720 340" enable-background="new 0 19 720 340" xml:space="preserve">
<g>
	<path fill="#FEBE10" d="M113.8,117.3c-2.1,0-4.1,0.5-5.4,1.6c-1,0.8-1.5,1.9-1.5,2.9c0.6,9.4,31.9,26.6,64.2,43.4
		c17.1,8.8,34.4,17,47.6,23.2c2.8-2.5,5.7-4.9,8.8-7.2C196.1,159,134.5,117.7,113.8,117.3L113.8,117.3"/>
	<path fill="#FEBE10" d="M62.3,182.3c-2.3,0-4.3,0.2-5.9,0.5c-2,0.5-3.7,1.4-4.4,2.8c-0.6,1-0.5,2.1,0.1,3.1
		c5.3,8.6,43.3,17.6,82.1,25.8c20.4,4.2,40.8,8,56.3,10.6c1.4-3,3-6,4.7-8.9C157.8,203.9,88.5,182.3,62.3,182.3"/>
	<path fill="#FEBE10" d="M85.9,252.7c-24,0-43.9,1.3-50.8,5.1c-1.6,0.9-2.8,2.2-2.7,3.7c0,1.1,0.6,2.1,1.6,2.9
		c6.2,4.6,25.8,5.9,50.1,5.9c12.5,0,26.2-0.3,39.9-0.8c21.4-0.8,42.5-2.1,58.4-3.2c-0.1-1.7-0.2-3.3-0.2-5c0-1.5,0.1-2.9,0.2-4.4
		C156.8,255,117.8,252.7,85.9,252.7"/>
	<path fill="#FEBE10" d="M629.7,252.8c-12.5,0-26.1,0.4-39.9,0.8c-21.7,0.8-43.1,2.1-59.1,3.2c0.1,1.5,0.2,3,0.2,4.5
		c0,1.6-0.1,3.2-0.2,4.9c25.6,1.8,65,4.2,97.1,4.2c24,0,43.9-1.3,50.8-5c1.6-0.9,2.8-2.2,2.7-3.7c0-1.1-0.6-2.1-1.6-2.9
		C673.7,254.1,654,252.8,629.7,252.8"/>
	<path fill="#FEBE10" d="M651,182.3c-16.6,0-47.9,8.3-79.2,17.3c-19.9,5.8-39.3,12-53.7,16.8c1.7,2.9,3.3,5.8,4.7,8.8
		c43.6-7.4,127.5-23.3,138.4-35.4c1.1-1.2,1.5-2.7,0.7-4.1c-0.5-1-1.6-1.8-3-2.4C656.9,182.6,654.2,182.3,651,182.3"/>
	<path fill="#FEBE10" d="M600.3,117.4c-14.2,0-43.5,17.5-72.4,35.7c-15.7,10.1-30.8,20.4-42,28.2c3.1,2.3,6,4.7,8.8,7.2
		c37.3-17.2,108.1-51.7,112.3-65.6c0.4-1.4,0-2.9-1.3-4c-1-0.8-2.5-1.4-4-1.5C601.2,117.4,600.8,117.4,600.3,117.4"/>
	<path fill="#FEBE10" d="M516,68.8c-0.4,0-0.9,0-1.3,0.1c-13.3,2.1-32.8,26.1-51.4,50.7c-9.7,13.1-18.7,26.2-25.2,36.2
		c4,1.5,8,3.1,11.8,4.7c26.5-24.9,75.6-73.8,72.6-87.8c-0.4-1.4-1.4-2.7-3.2-3.4C518.3,69,517.2,68.8,516,68.8"/>
	<path fill="#FEBE10" d="M412.3,43c-1.2,0-2.4,0.2-3.4,0.7c-11.5,5.1-17.8,32.2-23,59.7c-2.6,14.5-4.4,29-5.6,39.9
		c4.6,0.4,9.1,1,13.6,1.6c12.4-29.6,34-86.9,24.2-99.3c-1-1.3-2.7-2.2-4.8-2.5C413,43,412.6,43,412.3,43"/>
	<path fill="#FEBE10" d="M301.7,43c-0.3,0-0.7,0-1.1,0.1c-1.6,0.2-2.9,0.8-3.9,1.6c-8.3,7.5-0.6,34.4,8.3,61.5
		c4.8,14.2,10.3,28.2,14.7,38.7c4.5-0.7,9-1.2,13.6-1.6c-3.2-30.8-11.5-89.6-26.9-98.9C305,43.5,303.4,43,301.7,43"/>
	<path fill="#FEBE10" d="M197.9,68.8c-1.1,0-2.2,0.2-3.1,0.6c-1.4,0.5-2.4,1.4-2.9,2.4c-4.1,9,16.6,32.5,38.6,55.8
		c11.7,12.2,23.8,24,33.1,32.9c3.9-1.7,7.9-3.3,11.9-4.7c-18.4-28.2-55.6-81.4-74.8-86.6C199.8,68.9,198.8,68.8,197.9,68.8"/>
	<path fill="#FEBE10" d="M357,41c-22.2,0-3.8,177.6-1.7,187.5c0.6,3.1,1.3,4.4,1.8,4.4c0.5,0,1.2-1.3,1.8-4.4
		C360.9,218.6,379.1,41,357,41"/>
	<path fill="#FEBE10" d="M247.6,54.2c-0.3,0-0.6,0-1,0.1C225.8,59.5,332,222,338.9,230.9c2,2.6,3.3,3.7,3.8,3.7c0,0,0.1,0,0.1,0
		c0.5-0.1,0.5-1.5-0.5-4.5C339.2,220.4,269.5,54.2,247.6,54.2"/>
	<path fill="#FEBE10" d="M151.7,92.1c-0.8,0-1.5,0.2-2.1,0.5c-17,9.8,164.1,137.7,175,144.4c3,1.8,4.6,2.6,5.3,2.6
		c0.1,0,0.2,0,0.2,0c0.4-0.2-0.3-1.5-2.7-4.1C319.9,227.1,176.3,92.1,151.7,92.1"/>
	<path fill="#FEBE10" d="M81.8,150c-2.1,0-3.6,0.4-4.3,1.2c-11.1,13.1,223.1,91,236.7,94.8c3.1,0.9,5,1.2,5.9,1.2
		c0.3,0,0.5,0,0.6-0.1c0.2-0.3-1-1.3-4.6-3.2C305.3,238,114.4,150,81.8,150"/>
	<path fill="#FEBE10" d="M55.4,220c-9.7,0-15.6,0.9-16.1,3.1c-3.9,14.9,255.2,33.4,269.9,33.7c0.7,0,1.4,0,2,0
		c3.1,0,4.5-0.2,4.5-0.5c0.1-0.4-1.6-1-5.9-2C297.8,251.8,111.9,220,55.4,220"/>
	<path fill="#FEBE10" d="M658.4,220.1c-56.6,0-242.3,31.9-254.3,34.5c-4.3,1-6,1.7-6,2c0.1,0.2,1.4,0.5,4.4,0.5c0.7,0,1.4,0,2.2,0
		c14.7-0.4,273.7-19,269.9-33.8C674,221,668.1,220.1,658.4,220.1"/>
	<path fill="#FEBE10" d="M632,150.1c-32.7,0-223.3,88.1-234.2,93.9c-3.6,1.9-4.9,3-4.6,3.3c0.1,0.1,0.2,0.1,0.5,0.1
		c0.9,0,2.8-0.4,5.9-1.2c13.6-3.8,247.7-81.8,236.7-94.9C635.6,150.5,634.2,150.1,632,150.1"/>
	<path fill="#FEBE10" d="M562.2,92.1c-24.8,0-168.1,135.1-175.6,143.4c-2.4,2.6-3.1,3.9-2.7,4.2c0,0,0.1,0,0.2,0
		c0.6,0,2.3-0.7,5.3-2.6c10.9-6.7,191.8-134.8,174.9-144.5C563.8,92.3,563.1,92.1,562.2,92.1"/>
	<path fill="#FEBE10" d="M466.3,54.2c-22,0-91.5,166.2-94.5,175.9c-0.9,3.1-0.9,4.4-0.4,4.5c0,0,0,0,0.1,0c0.5,0,1.8-1.1,3.8-3.7
		c6.9-8.9,112.8-171.5,92.1-176.6C467,54.2,466.7,54.2,466.3,54.2"/>
</g>
<g>
	<path fill="#808184" d="M636,327.7c1.9,0,3.7-0.2,5.5-0.2c1.9,0,3.7,0.2,5.6,0.2v-1.1c-2.7-0.6-2.9-2.1-2.9-4.3v-10.3
		c1.3,0,2.4,1.4,3.1,2.2l8.7,10.1c0.6,0.7,0.8,1.2,0.8,1.7c-0.1,0.4-0.2,0.6-0.6,0.6v1.1c1.7,0,3.4-0.2,5.2-0.2
		c1.7,0,3.5,0.2,5.2,0.2v-1.1c-1.4-0.3-3.2-2-4-2.9l-10.5-12.2c4.6-1.1,9.4-4.5,9.4-9.8c0-5.6-4.6-10.3-14-10.3
		c-3.9,0-5.5,0.2-7,0.2c-1.7,0-3.4-0.2-5.1-0.2v1.1c2.7,0.5,2.9,1.8,2.9,4.3c0,4.4,0.3,8.9,0.3,13.4v13.4c0,1.8-0.8,2.6-2.6,3V327.7
		z M644.4,294.7c0-1.3,1.5-1.5,2.8-1.5c5.7,0,7.9,4.3,7.9,9.1c0,5-4.1,8.2-8.9,8.2c-0.6,0-1.2-0.1-2-0.2L644.4,294.7z M587.6,327.5
		h20c0.8,0,1.7,0.1,2.4,0.2c0.8,0.2,1.7,0.4,2.5,0.7l1.8-6.4l-1.6-0.8c-2.4,3.3-3.8,3.9-7.6,3.9h-8.9v-14.6h7.9c3,0,4,0.2,5.2,3.8
		h1.8c0-1.5-0.2-3-0.2-4.6c0-1.5,0.2-3,0.2-4.5h-1.7c-1.3,2.6-2.2,2.8-5.3,2.8h-7.9V294h9.1c2.9,0,4.1,1.9,5,4.4h2
		c0-1.3-0.2-2.6-0.2-3.9c0-1.3,0.2-2.6,0.2-3.9c-0.9,0.3-2.7,0.8-4.1,0.8h-20.6v1.1c1.6,0.3,2.6,1.2,2.6,2.5
		c0,4.6,0.4,12.1,0.4,19.2v8.8c0,1.7-1,3-3,3.2V327.5z M566.3,290.7c-1.2,0.5-3.5,0.8-5,0.8h-23c-1,0-2-0.1-3-0.2
		c-1-0.2-2-0.4-3-0.6v7.4h2c0.5-3.1,2.1-4,5.1-4h7c0.1,4.5,0.5,11.9,0.5,19.4v8.2c0,3-0.7,4.2-3.1,5v1.1c2,0,4-0.2,6-0.2
		c2,0,4,0.2,6,0.2v-1.1c-2.3-0.7-3.3-1.7-3.3-5v-11.1c0-6.3,0.3-12,0.3-16.5h6.6c3,0,4.5,0.9,5.1,4h2V290.7z M473.4,327.7
		c1.7,0,3.4-0.2,5.1-0.2c1.7,0,3.4,0.2,5.2,0.2v-1.1c-2.5-0.6-3.8-2.5-3.8-6.6l-0.2-19.9l25.9,28.2h1.8l0.2-29.4
		c0-4.2,1.2-6,3.4-6.5v-1.1c-1.7,0-3.5,0.2-5.2,0.2c-1.7,0-3.4-0.2-5.2-0.2v1.1c2.5,0.4,3.9,1.9,3.9,8.3v17.9L479,290.7h-2.2
		l-0.2,30.9c0,2.9-1.2,4.5-3.2,5V327.7z M425.7,327.5h20c0.8,0,1.7,0.1,2.5,0.2c0.8,0.2,1.7,0.4,2.4,0.7l1.8-6.4l-1.6-0.8
		c-2.3,3.3-3.8,3.9-7.6,3.9h-8.9v-14.6h7.9c3,0,4,0.2,5.2,3.8h1.8c0-1.5-0.2-3-0.2-4.6c0-1.5,0.2-3,0.2-4.5h-1.7
		c-1.3,2.6-2.2,2.8-5.3,2.8h-7.9V294h9.1c2.9,0,4.1,1.9,5,4.4h2c0-1.3-0.2-2.6-0.2-3.9c0-1.3,0.2-2.6,0.2-3.9
		c-0.9,0.3-2.7,0.8-4.1,0.8h-20.6v1.1c1.6,0.3,2.6,1.2,2.6,2.5c0,4.6,0.4,12.1,0.4,19.2v8.8c0,1.7-1,3-3,3.2V327.5z M403.7,292.8
		c-3.7-0.9-6.3-2.1-13.1-2.1c-11.7,0-20,7.9-20,18.7c0,9.4,6.8,19,22.4,19c3.4,0,6-0.4,10.2-1.2l1.6-5.8l-1.6-0.7
		c-2.3,3.7-6.1,5.5-10.3,5.5c-4.3,0-15-2.5-15-17.2c0-8.8,3.8-16.1,12.8-16.1c4.5,0,9.6,1.9,11.2,6.8h2.2L403.7,292.8z M287.8,327.7
		c1.9,0,3.6-0.2,5.5-0.2c1.9,0,3.7,0.2,5.6,0.2v-1.1c-2.7-0.6-2.9-2.1-2.9-4.3v-10.3c1.3,0,2.3,1.4,3.1,2.2l8.7,10.1
		c0.6,0.7,0.8,1.2,0.8,1.7c-0.1,0.4-0.2,0.6-0.6,0.6v1.1c1.7,0,3.4-0.2,5.2-0.2s3.5,0.2,5.2,0.2v-1.1c-1.4-0.3-3.2-2-4-2.9
		l-10.5-12.2c4.6-1.1,9.4-4.5,9.4-9.8c0-5.6-4.6-10.3-14-10.3c-3.9,0-5.5,0.2-7,0.2c-1.7,0-3.4-0.2-5.1-0.2v1.1
		c2.7,0.5,2.9,1.8,2.9,4.3c0,4.4,0.3,8.9,0.3,13.4v13.4c0,1.8-0.8,2.6-2.6,3V327.7z M296.2,294.7c0-1.3,1.5-1.5,2.8-1.5
		c5.7,0,7.9,4.3,7.9,9.1c0,5-4.1,8.2-8.9,8.2c-0.6,0-1.3-0.1-2-0.2L296.2,294.7z M239.4,327.5h20c0.8,0,1.7,0.1,2.5,0.2
		c0.8,0.2,1.7,0.4,2.5,0.7l1.8-6.4l-1.6-0.8c-2.3,3.3-3.8,3.9-7.6,3.9H248v-14.6h7.9c3,0,4,0.2,5.2,3.8h1.8c0-1.5-0.2-3-0.2-4.6
		c0-1.5,0.2-3,0.2-4.5h-1.7c-1.3,2.6-2.2,2.8-5.3,2.8H248V294h9.1c2.9,0,4.1,1.9,5,4.4h2c0-1.3-0.2-2.6-0.2-3.9
		c0-1.3,0.2-2.6,0.2-3.9c-0.9,0.3-2.7,0.8-4.1,0.8h-20.6v1.1c1.6,0.3,2.6,1.2,2.6,2.5c0,4.6,0.4,12.1,0.4,19.2v8.8c0,1.7-1,3-3,3.2
		V327.5z M217.4,292.8c-3.7-0.9-6.3-2.1-13.1-2.1c-11.7,0-20,7.9-20,18.7c0,9.4,6.8,19,22.4,19c3.4,0,6-0.4,10.2-1.2l1.6-5.8
		l-1.6-0.7c-2.3,3.7-6.1,5.5-10.3,5.5c-4.3,0-15-2.5-15-17.2c0-8.8,3.8-16.1,12.8-16.1c4.5,0,9.6,1.9,11.2,6.8h2.2L217.4,292.8z
		 M125.8,327.7c1.7,0,3.4-0.2,5.1-0.2c1.7,0,3.4,0.2,5.2,0.2v-1.1c-2.5-0.6-3.8-2.5-3.8-6.6l-0.2-19.9l25.9,28.2h1.8l0.2-29.4
		c0-4.2,1.1-6,3.4-6.5v-1.1c-1.7,0-3.5,0.2-5.2,0.2c-1.7,0-3.4-0.2-5.2-0.2v1.1c2.5,0.4,3.9,1.9,3.9,8.3v17.9l-25.5-28.1h-2.2
		l-0.2,30.9c0,2.9-1.2,4.5-3.2,5V327.7z M82.1,314.6l5.1-13.7l5.3,13.7H82.1z M93.4,317.1l1.8,4.8c0.4,1,0.6,1.9,0.6,2.7
		c0,1.2-0.6,1.9-1.7,1.9v1.1c1.8,0,3.5-0.2,5.3-0.2c1.8,0,3.5,0.2,5.3,0.2v-1.1c-1.9-0.2-2.3-1.9-4.2-6.6L89,290.7h-0.6l-11.1,28.1
		c-1,2.5-3,7.4-5.1,7.8v1.1c1.5,0,3-0.2,4.5-0.2c1.5,0,3,0.2,4.5,0.2v-1.1c-1.3,0-1.9-1-1.9-2.2c0-0.6,0.1-1.7,0.4-2.6l1.4-4.6H93.4
		z M50.8,292.8c-3.7-0.9-6.3-2.1-13.1-2.1c-11.7,0-20,7.9-20,18.7c0,9.4,6.8,19,22.4,19c3.4,0,6-0.4,10.2-1.2l1.6-5.8l-1.6-0.7
		c-2.3,3.7-6.1,5.5-10.3,5.5c-4.3,0-15-2.5-15-17.2c0-8.8,3.8-16.1,12.8-16.1c4.5,0,9.6,1.9,11.2,6.8h2.2L50.8,292.8z"/>
</g>
<g>
	<g>
		<g>
			<g>
				<g>
					<path fill="#231F20" d="M636.7,259.7c0,5.6-2.4,10.7-9.6,10.7v3.2c5.5,0,11.1-0.7,16.8-0.7c6.4,0,12.1,0.7,17.1,0.7v-3.2
						c-6.8,0-9.2-5.2-9.2-10.7v-47.1l17.7-26.7c7.2-10.7,23.4-30.8,32.8-34v-3.2c-4.9,0-9.8,0.7-14.7,0.7c-4.9,0-9.8-0.7-14.7-0.7
						v3.2c3,0.4,6.2,1.1,6.2,4.7c0,1.3-1.3,4.5-4.3,8.8L646.7,208l-27.3-43.7c-1.7-2.9-2.5-5.5-2.5-6.6c0-3.2,2.5-4.8,6.8-5.7v-3.2
						c-5.8,0-11.7,0.7-17.5,0.7c-5.8,0-11.7-0.7-17.5-0.7v3.2c5.5,2.1,10.5,6.3,14.7,12.9l33.3,51.2V259.7z M577.5,146.6h-3.4
						c-0.9,1.8-2.1,2.9-6.2,2.9h-75v3.2c9.8,0.4,10.5,1.8,10.5,57.3v49.7c0,7.9-2.8,10.4-10.5,10.7v2.5h60.6c6,0,10.7,0,14.5,0.4
						c4,0.2,7.3,0.5,10.5,1.2l2.8-19.5l-3-0.5c-3.4,7.2-8.7,12.3-20.7,12.3h-39.2v-54.2h33c10.5,0,14.1,2.3,16.2,8.9h3.4
						c-0.2-3.9-0.6-8.1-0.6-12.2c0-4.1,0.4-8.2,0.6-12h-3.4c-2.1,6.8-5.6,9.1-16.2,9.1h-33v-18.1c0-10.6,0.4-25,1.5-32.9h29.4
						c15.8,0,22.8,4.7,24.7,12.7h3.4V146.6z M478.5,169.2l-0.8-20c-9.8,0.4-19.2-2.5-29-2.5c-24.7,0-46.1,10.6-46.1,36.5
						c0,46.2,66.5,26.3,66.5,64.2c0,15.7-13,22.7-27.9,22.7c-12.6,0-27.7-5.4-32-18.1h-3.4l0.8,18.6c11.7,3.2,23.3,5.2,34.8,5.2
						c23.2,0,40.9-12.2,40.9-35.4c0-42.8-66.5-25.8-66.5-64.2c0-16.3,14.7-23.8,29.9-23.8c11.9,0,25.4,5.2,29.4,16.8H478.5z
						 M386.7,169.2l-0.7-20c-9.8,0.4-19.2-2.5-29-2.5c-24.7,0-46.1,10.6-46.1,36.5c0,46.2,66.5,26.3,66.5,64.2
						c0,15.7-13,22.7-27.9,22.7c-12.6,0-27.7-5.4-32-18.1H314l0.8,18.6c11.7,3.2,23.3,5.2,34.8,5.2c23.2,0,40.9-12.2,40.9-35.4
						c0-42.8-66.5-25.8-66.5-64.2c0-16.3,14.7-23.8,29.9-23.8c11.9,0,25.4,5.2,29.4,16.8H386.7z M244.8,172.2l22.2,58.3h-47.3
						L244.8,172.2z M269.4,237.9l7.3,18.8c0.9,2.5,2.1,4.8,2.1,7.7c0,2.1-4.1,4.5-6.6,6.1v3.2c5.6,0,11.3-0.7,17-0.7
						s11.3,0.7,16.9,0.7v-3.2c-9-3.2-11.7-6.4-14.9-15l-40.9-108.8h-3.2l-45.6,108.8c-3.4,7.9-4.7,12.2-14.1,15v3.2
						c5.8,0,10.7-0.7,15.6-0.7c4.7,0,9.6,0.7,14.3,0.7v-3.2c-4.7-1.6-8.1-3.9-8.1-7.2c0-1.8,0-6.3,1.3-9.7l6-15.7H269.4z
						 M45.6,146.6h-3.4L35,249.7c-1.1,15.6-2.6,18.6-12.6,20.8v3.2c5.5,0,10.7-0.7,16.2-0.7c5.7,0,11.1,0.7,16.4,0.7v-3.2
						c-6.4-0.7-11.7-5-11.7-17.5c0-4.7,0-12.9,0.4-17.5l3.6-56.2h0.9l54.4,90.5l46.7-90.4h0.8l3.8,63.5c0.2,2.9,0.6,8.6,0.6,15.4
						c0,6.4-1.5,11.6-9.4,12.2v3.2c4.7,0,10.4-0.7,15.8-0.7c6.6,0,12.2,0.7,17.7,0.7v-3.2c-8.3-1.3-9.4-2.9-10.2-17.4l-5.5-106.5
						h-3.2L107,249.2L45.6,146.6z"/>
				</g>
			</g>
		</g>
	</g>
</g>
</svg>
