<?xml version="1.0" encoding="utf-8"?>
<!-- Generator: Adobe Illustrator 18.1.1, SVG Export Plug-In . SVG Version: 6.00 Build 0)  -->
<svg version="1.1" id="Layer_1" xmlns="http://www.w3.org/2000/svg" xmlns:xlink="http://www.w3.org/1999/xlink" x="0px" y="0px"
	 viewBox="0 19 720 481" enable-background="new 0 19 720 481" xml:space="preserve">
<g>
	<path fill="#FEBE10" d="M120.6,125.1c-2.1,0-4.1,0.6-5.6,1.8c-1.2,0.9-1.5,2.1-1.5,2.9c0.6,9.4,32.4,27.1,65.3,44.1
		c17.4,8.8,35,17.4,48.5,23.5c2.9-2.6,5.9-5,9.1-7.4C204.1,167.8,141.5,125.7,120.6,125.1L120.6,125.1"/>
	<path fill="#FEBE10" d="M68,191.3c-2.4,0-4.4,0.3-5.9,0.6c-2.1,0.6-3.8,1.5-4.4,2.9c-0.6,1.2-0.6,2.1,0,3.2
		c5.3,8.8,44.1,17.9,83.5,26.2c20.9,4.4,41.5,8.2,57.4,10.9c1.5-2.9,2.9-6.2,4.7-9.1C165.3,213.4,94.7,191.3,68,191.3"/>
	<path fill="#FEBE10" d="M92.1,263.1c-24.4,0-44.7,1.2-51.8,5c-1.8,0.9-2.9,2.4-2.6,3.8c0,1.2,0.6,2.1,1.5,2.9
		c6.2,4.7,26.2,5.9,50.9,5.9c12.6,0,26.8-0.3,40.6-0.9c21.8-0.9,43.2-2.1,59.4-3.2c0-1.8-0.3-3.5-0.3-5s0-2.9,0.3-4.4
		C164.4,265.4,124.4,263.1,92.1,263.1"/>
	<path fill="#FEBE10" d="M645.3,263.1c-12.6,0-26.5,0.3-40.6,0.9c-22.1,0.9-43.8,2.1-60,3.2c0,1.5,0.3,2.9,0.3,4.4
		c0,1.8,0,3.2-0.3,5c25.9,1.8,66.2,4.1,98.8,4.1c24.4,0,44.7-1.2,51.8-5c1.8-0.9,2.9-2.4,2.9-3.8c0-1.2-0.6-2.1-1.8-2.9
		C690.3,264.5,670.3,263.1,645.3,263.1"/>
	<path fill="#FEBE10" d="M667.1,191.3c-16.8,0-48.8,8.5-80.6,17.6c-20.3,5.9-40,12.1-54.7,17.1c1.8,2.9,3.2,5.9,4.7,8.8
		c44.4-7.6,129.7-23.8,140.9-35.9c1.2-1.2,1.5-2.6,0.9-4.1c-0.6-1.2-1.8-1.8-2.9-2.4C673.3,191.6,670.3,191.3,667.1,191.3"/>
	<path fill="#FEBE10" d="M615.6,125.4c-14.4,0-44.4,17.6-73.8,36.5c-15.9,10.3-31.5,20.6-42.6,28.8c3.2,2.4,6.2,4.7,8.8,7.4
		c37.9-17.6,110-52.6,114.1-66.8c0.3-1.5,0-2.9-1.5-4.1c-0.9-0.9-2.6-1.5-4.1-1.5C616.5,125.4,615.9,125.4,615.6,125.4"/>
	<path fill="#FEBE10" d="M529.7,76c-0.6,0-0.9,0-1.5,0c-13.5,2.1-33.2,26.5-52.4,51.8c-10,13.2-19.1,26.8-25.6,36.8
		c4.1,1.5,8.2,3.2,12.1,4.7c27.1-25.3,76.8-75,73.8-89.4c-0.3-1.5-1.5-2.6-3.2-3.5C532.1,76,530.9,76,529.7,76"/>
	<path fill="#FEBE10" d="M424.1,49.5c-1.2,0-2.4,0.3-3.5,0.6c-11.8,5.3-18.2,32.6-23.2,60.9c-2.6,14.7-4.4,29.4-5.6,40.6
		c4.7,0.6,9.4,0.9,13.8,1.8c12.6-30.3,34.7-88.5,24.7-101.2c-1.2-1.2-2.6-2.4-5-2.6C425,49.5,424.4,49.5,424.1,49.5"/>
	<path fill="#FEBE10" d="M311.8,49.5c-0.3,0-0.6,0-1.2,0c-1.5,0.3-2.9,0.9-4.1,1.5c-8.5,7.6-0.6,35,8.5,62.6
		c5,14.4,10.6,28.5,15,39.4c4.4-0.6,9.1-1.2,13.8-1.8c-3.2-31.5-11.8-91.2-27.4-100.6C315,50.1,313.6,49.5,311.8,49.5"/>
	<path fill="#FEBE10" d="M205.9,76c-1.2,0-2.4,0.3-3.2,0.6c-1.5,0.6-2.4,1.5-2.9,2.4c-4.1,9.1,17.1,32.9,39.1,56.8
		c11.8,12.4,24.1,24.4,33.8,33.5c3.8-1.8,7.9-3.2,12.1-4.7c-18.8-28.8-56.5-82.9-76.2-88.2C208,76,207.1,76,205.9,76"/>
	<path fill="#FEBE10" d="M368,47.8c-22.6,0-3.8,180.6-1.8,190.9c0.6,3.2,1.5,4.4,1.8,4.4c0.6,0,1.2-1.2,1.8-4.4
		C371.8,228.4,390.3,47.8,368,47.8"/>
	<path fill="#FEBE10" d="M256.8,61c-0.3,0-0.6,0-0.9,0c-21.2,5.3,86.8,170.6,93.8,179.7c2.1,2.6,3.2,3.8,3.8,3.8l0,0
		c0.6,0,0.6-1.5-0.6-4.7C350,230.1,278.8,61,256.8,61"/>
	<path fill="#FEBE10" d="M159.1,99.5c-0.9,0-1.5,0.3-2.1,0.6c-17.4,10,167.1,140,178.2,147.1c2.9,1.8,4.7,2.6,5.3,2.6h0.3
		c0.3-0.3-0.3-1.5-2.6-4.1C330.3,236.9,184.1,99.5,159.1,99.5"/>
	<path fill="#FEBE10" d="M88,158.6c-2.1,0-3.5,0.3-4.4,1.2c-11.2,13.2,227.1,92.6,240.9,96.5c3.2,0.9,5,1.2,5.9,1.2
		c0.3,0,0.6,0,0.6,0c0.3-0.3-1.2-1.5-4.7-3.2C315.3,248.1,121.2,158.6,88,158.6"/>
	<path fill="#FEBE10" d="M61.2,229.8c-10,0-15.9,0.9-16.5,3.2c-3.8,15.3,259.7,33.8,274.7,34.4c0.9,0,1.5,0,2.1,0
		c3.2,0,4.4-0.3,4.7-0.6c0-0.3-1.8-1.2-6.2-2.1C307.7,262.2,118.6,229.8,61.2,229.8"/>
	<path fill="#FEBE10" d="M674.7,229.8c-57.6,0-246.5,32.4-258.8,35c-4.4,0.9-6.2,1.8-6.2,2.1c0,0.3,1.5,0.6,4.4,0.6
		c0.6,0,1.5,0,2.4,0c15-0.3,278.5-19.4,274.7-34.4C690.6,230.7,684.4,229.8,674.7,229.8"/>
	<path fill="#FEBE10" d="M647.7,158.6c-33.2,0-227.4,89.7-238.2,95.6c-3.5,2.1-5,2.9-4.7,3.2c0,0,0.3,0,0.6,0c0.9,0,2.9-0.3,5.9-1.2
		c13.8-3.8,252.1-83.2,240.9-96.5C651.5,158.9,650,158.6,647.7,158.6"/>
	<path fill="#FEBE10" d="M576.8,99.5c-25.3,0-170.9,137.4-178.5,145.9c-2.4,2.6-3.2,4.1-2.6,4.1c0,0,0,0,0.3,0
		c0.6,0,2.4-0.9,5.3-2.6c11.2-6.8,195.3-137.1,177.9-147.1C578.3,99.8,577.7,99.5,576.8,99.5"/>
	<path fill="#FEBE10" d="M479.1,61c-22.4,0-92.9,169.1-96.2,179.1c-0.9,3.2-0.9,4.4-0.6,4.7l0,0c0.6,0,1.8-1.2,3.8-3.8
		c7.1-9.1,114.7-174.4,93.8-179.7C480,61,479.4,61,479.1,61"/>
</g>
<path d="M636.2,399.2c0,5.3-2.4,10.3-9.1,10.3v2.9c5.3,0,10.6-0.6,16.2-0.6c6.2,0,11.5,0.6,16.5,0.6v-2.9c-6.5,0-8.8-5-8.8-10.3
	v-45.3l17.1-25.6c6.8-10.3,22.4-29.4,31.5-32.6v-2.9c-4.7,0-9.4,0.6-14.1,0.6c-4.7,0-9.4-0.6-14.1-0.6v2.9c2.9,0.3,5.9,1.2,5.9,4.4
	c0,1.2-1.2,4.4-4.1,8.5l-26.8,40.9L620,307.8c-1.8-2.6-2.4-5.3-2.4-6.5c0-2.9,2.4-4.7,6.5-5.6v-2.9c-5.6,0-11.2,0.6-16.8,0.6
	c-5.6,0-11.2-0.6-16.8-0.6v2.9c5.3,2.1,10,5.9,14.1,12.4l32.1,49.1v42.1H636.2z M579.4,290.7h-3.2c-0.9,1.8-2.1,2.6-5.9,2.6h-71.8
	v2.9c9.4,0.3,10,1.8,10,55v47.6c0,7.6-2.6,10-10,10.3v2.4h58.2c5.9,0,10.3,0,13.8,0.3c3.8,0.3,7.1,0.6,10,1.2l2.6-18.8l-2.9-0.6
	c-3.2,6.8-8.2,11.8-20,11.8H523v-51.5h31.5c10,0,13.5,2.4,15.6,8.5h3.2c-0.3-3.8-0.6-7.6-0.6-11.8c0-3.8,0.3-7.9,0.6-11.5H570
	c-2.1,6.5-5.3,8.8-15.6,8.8H523v-17.4c0-10,0.3-24.1,1.5-31.5h28.2c15.3,0,21.8,4.4,23.5,12.1h3.2V290.7z M484.4,312.2l-0.6-19.1
	c-9.4,0.3-18.5-2.4-27.9-2.4c-23.5,0-44.1,10-44.1,35c0,44.1,63.8,25.3,63.8,61.5c0,15-12.4,21.8-26.8,21.8
	c-12.1,0-26.5-5.3-30.6-17.4H415l0.6,17.9c11.2,2.9,22.4,5,33.5,5c22.4,0,39.1-11.8,39.1-33.8c0-40.9-63.8-24.7-63.8-61.5
	c0-15.6,14.1-22.9,28.8-22.9c11.5,0,24.4,5,28.2,16.2h2.9V312.2z M396.5,312.2l-0.6-19.1c-9.4,0.3-18.5-2.4-27.9-2.4
	c-23.5,0-44.1,10-44.1,35c0,44.1,63.8,25.3,63.8,61.5c0,15-12.4,21.8-26.8,21.8c-12.1,0-26.5-5.3-30.6-17.4h-3.2l0.6,17.9
	c11.2,2.9,22.4,5,33.5,5c22.4,0,39.1-11.8,39.1-33.8c0-40.9-63.8-24.7-63.8-61.5c0-15.6,14.1-22.9,28.8-22.9
	c11.5,0,24.4,5,28.2,16.2h2.9V312.2z M260.3,315.1l21.2,55.9h-45.3L260.3,315.1z M283.8,378.1l7.1,17.9c0.9,2.4,2.1,4.7,2.1,7.4
	c0,2.1-4.1,4.4-6.2,5.9v2.9c5.3,0,10.9-0.6,16.2-0.6c5.3,0,10.9,0.6,16.2,0.6v-2.9c-8.5-2.9-11.2-6.2-14.4-14.4l-39.1-104.4h-2.9
	l-43.8,104.7c-3.2,7.6-4.4,11.8-13.5,14.4v2.9c5.6,0,10.3-0.6,15-0.6c4.4,0,9.1,0.6,13.8,0.6v-2.9c-4.4-1.5-7.6-3.8-7.6-6.8
	c0-1.8,0-5.9,1.2-9.1l5.9-15h50.3V378.1z M69.4,290.7h-3.2l-6.8,98.8c-1.2,15-2.6,17.9-12.1,20v2.9c5.3,0,10.3-0.6,15.6-0.6
	c5.3,0,10.6,0.6,15.6,0.6v-2.9c-6.2-0.6-11.2-4.7-11.2-16.8c0-4.4,0-12.4,0.3-16.8l3.5-53.8h0.9l52.1,86.8l44.7-86.8h0.6l3.5,60.9
	c0.3,2.6,0.6,8.2,0.6,14.7c0,6.2-1.5,11.2-9.1,11.8v2.9c4.4,0,10-0.6,15.3-0.6c6.2,0,11.8,0.6,17.1,0.6v-2.9
	c-7.9-1.2-9.1-2.6-9.7-16.8l-5.3-102.1h-2.9l-50.6,98.2L69.4,290.7z"/>
<g>
	<path fill="#808285" d="M635.6,464.2c1.8,0,3.5-0.3,5.3-0.3c1.8,0,3.5,0.3,5.3,0.3v-1.2c-2.6-0.6-2.9-2.1-2.9-4.1v-10
		c1.2,0,2.4,1.2,2.9,2.1l8.2,9.7c0.6,0.6,0.9,1.2,0.9,1.5s-0.3,0.6-0.6,0.6v1.2c1.8,0,3.2-0.3,5-0.3c1.8,0,3.2,0.3,5,0.3v-1.2
		c-1.5-0.3-2.9-1.8-3.8-2.9l-10-11.8c4.4-1.2,9.1-4.4,9.1-9.4c0-5.3-4.4-10-13.5-10c-3.8,0-5.3,0.3-6.8,0.3c-1.5,0-3.2-0.3-4.7-0.3
		v1.2c2.6,0.6,2.9,1.8,2.9,4.1c0,4.1,0.3,8.5,0.3,12.9v12.9c0,1.8-0.9,2.4-2.6,2.9V464.2z M643.6,432.8c0-1.2,1.5-1.5,2.6-1.5
		c5.6,0,7.6,4.1,7.6,8.8s-3.8,7.9-8.5,7.9c-0.6,0-1.2,0-2.1-0.3L643.6,432.8z M589.1,464.2h19.1c0.9,0,1.5,0,2.4,0.3
		s1.5,0.3,2.4,0.6l1.8-6.2l-1.5-0.9c-2.4,3.2-3.5,3.8-7.4,3.8h-8.5v-14.1h7.6c2.9,0,3.8,0.3,5,3.5h1.8c0-1.5-0.3-2.9-0.3-4.4
		s0.3-2.9,0.3-4.4h-1.5c-1.2,2.4-2.1,2.6-5,2.6h-7.6v-13.2h8.8c2.6,0,3.8,1.8,4.7,4.1h1.8c0-1.2-0.3-2.4-0.3-3.8
		c0-1.5,0.3-2.4,0.3-3.8c-0.9,0.3-2.6,0.9-3.8,0.9h-19.7v1.2c1.5,0.3,2.4,1.2,2.4,2.4c0,4.4,0.3,11.5,0.3,18.5v8.5
		c0,1.8-0.9,2.9-2.9,2.9V464.2z M568.6,428.9c-1.2,0.6-3.2,0.9-4.7,0.9h-22.1c-0.9,0-2.1,0-2.9-0.3c-0.9-0.3-2.1-0.3-2.9-0.6v7.1
		h1.8c0.6-2.9,2.1-3.8,4.7-3.8h6.8c0,4.4,0.6,11.5,0.6,18.5v7.9c0,2.9-0.6,4.1-2.9,4.7v1.2c2.1,0,3.8-0.3,5.9-0.3
		c1.8,0,3.8,0.3,5.9,0.3v-1.2c-2.1-0.6-3.2-1.8-3.2-4.7v-10.6c0-5.9,0.3-11.5,0.3-15.9h6.2c2.9,0,4.4,0.9,4.7,3.8h1.8v-7.1H568.6z
		 M479.7,464.2c1.8,0,3.2-0.3,5-0.3s3.2,0.3,5,0.3v-1.2c-2.4-0.6-3.5-2.4-3.5-6.2l-0.3-19.1l25,27.1h1.8l0.3-28.2
		c0-4.1,1.2-5.9,3.2-6.2v-1.2c-1.8,0-3.2,0.3-5,0.3c-1.8,0-3.2-0.3-5-0.3v1.2c2.4,0.3,3.8,1.8,3.8,7.9v17.1l-24.4-26.8h-2.1
		l-0.3,29.7c0,2.9-1.2,4.4-3.2,4.7v1.2H479.7z M433.8,464.2H453c0.9,0,1.5,0,2.4,0.3s1.5,0.3,2.4,0.6l1.8-6.2l-1.5-0.9
		c-2.4,3.2-3.5,3.8-7.4,3.8h-8.5v-14.1h7.6c2.9,0,3.8,0.3,5,3.5h1.8c0-1.5-0.3-2.9-0.3-4.4s0.3-2.9,0.3-4.4H455
		c-1.2,2.4-2.1,2.6-5,2.6h-7.6v-13.2h8.8c2.6,0,3.8,1.8,4.7,4.1h1.8c0-1.2-0.3-2.4-0.3-3.8c0-1.5,0.3-2.4,0.3-3.8
		c-0.9,0.3-2.6,0.9-3.8,0.9h-19.7v1.2c1.5,0.3,2.4,1.2,2.4,2.4c0,4.4,0.3,11.5,0.3,18.5v8.5c0,1.8-0.9,2.9-2.9,2.9V464.2z
		 M412.7,430.7c-3.5-0.9-6.2-2.1-12.6-2.1c-11.2,0-19.1,7.6-19.1,17.9c0,9.1,6.5,18.2,21.5,18.2c3.2,0,5.9-0.3,9.7-1.2l1.5-5.6
		l-1.5-0.6c-2.1,3.5-5.9,5.3-10,5.3s-14.4-2.4-14.4-16.5c0-8.5,3.5-15.3,12.4-15.3c4.4,0,9.1,1.8,10.9,6.5h2.1L412.7,430.7z
		 M301.5,464.2c1.8,0,3.5-0.3,5.3-0.3c1.8,0,3.5,0.3,5.3,0.3v-1.2c-2.6-0.6-2.9-2.1-2.9-4.1v-10c1.2,0,2.4,1.2,2.9,2.1l8.2,9.7
		c0.6,0.6,0.9,1.2,0.9,1.5s-0.3,0.6-0.6,0.6v1.2c1.8,0,3.2-0.3,5-0.3s3.2,0.3,5,0.3v-1.2c-1.5-0.3-2.9-1.8-3.8-2.9l-10-11.8
		c4.4-1.2,9.1-4.4,9.1-9.4c0-5.3-4.4-10-13.5-10c-3.8,0-5.3,0.3-6.8,0.3c-1.5,0-3.2-0.3-4.7-0.3v1.2c2.6,0.6,2.9,1.8,2.9,4.1
		c0,4.1,0.3,8.5,0.3,12.9v12.9c0,1.8-0.9,2.4-2.6,2.9V464.2z M309.7,432.8c0-1.2,1.5-1.5,2.6-1.5c5.6,0,7.6,4.1,7.6,8.8
		s-3.8,7.9-8.5,7.9c-0.6,0-1.2,0-2.1-0.3L309.7,432.8z M255,464.2h19.1c0.9,0,1.5,0,2.4,0.3s1.5,0.3,2.4,0.6l1.8-6.2l-1.5-0.9
		c-2.4,3.2-3.5,3.8-7.4,3.8h-8.5v-14.1h7.6c2.9,0,3.8,0.3,5,3.5h1.8c0-1.5-0.3-2.9-0.3-4.4s0.3-2.9,0.3-4.4h-1.8
		c-1.2,2.4-2.1,2.6-5,2.6h-7.6v-13.2h8.8c2.6,0,3.8,1.8,4.7,4.1h1.8c0-1.2-0.3-2.4-0.3-3.8c0-1.5,0.3-2.4,0.3-3.8
		c-0.9,0.3-2.6,0.9-3.8,0.9H255v1.2c1.5,0.3,2.4,1.2,2.4,2.4c0,4.4,0.3,11.5,0.3,18.5v8.5c0,1.8-0.9,2.9-2.9,2.9v1.5H255z
		 M234.1,430.7c-3.5-0.9-6.2-2.1-12.6-2.1c-11.2,0-19.1,7.6-19.1,17.9c0,9.1,6.5,18.2,21.5,18.2c3.2,0,5.9-0.3,9.7-1.2l1.5-5.6
		l-1.5-0.6c-2.1,3.5-5.9,5.3-10,5.3s-14.4-2.4-14.4-16.5c0-8.5,3.5-15.3,12.4-15.3c4.4,0,9.1,1.8,10.9,6.5h2.1L234.1,430.7z
		 M146.2,464.2c1.8,0,3.2-0.3,5-0.3c1.8,0,3.2,0.3,5,0.3v-1.2c-2.4-0.6-3.5-2.4-3.5-6.2l-0.3-19.1l24.7,27.1h1.8l0.3-28.2
		c0-4.1,1.2-5.9,3.2-6.2v-1.2c-1.8,0-3.2,0.3-5,0.3c-1.8,0-3.2-0.3-5-0.3v1.2c2.4,0.3,3.8,1.8,3.8,7.9v17.1l-24.4-26.8h-2.4
		l-0.3,29.7c0,2.9-1.2,4.4-3.2,4.7v1.2H146.2z M104.4,451.9l4.7-13.2l5,13.2H104.4z M115,454.2l1.8,4.7c0.3,0.9,0.6,1.8,0.6,2.6
		c0,1.2-0.6,1.8-1.8,1.8v1.2c1.8,0,3.2-0.3,5-0.3c1.8,0,3.2,0.3,5,0.3v-1.2c-1.8-0.3-2.4-1.8-4.1-6.2l-10.9-28.2H110l-10.6,26.8
		c-0.9,2.4-2.9,7.1-4.7,7.4v1.2c1.5,0,2.9-0.3,4.4-0.3c1.5,0,2.9,0.3,4.4,0.3v-1.2c-1.2,0-1.8-0.9-1.8-2.1c0-0.6,0-1.8,0.3-2.6
		l1.5-4.4H115V454.2z M74.4,430.7c-3.5-0.9-6.2-2.1-12.6-2.1c-11.2,0-19.1,7.6-19.1,17.9c0,9.1,6.5,18.2,21.5,18.2
		c3.2,0,5.9-0.3,9.7-1.2l1.5-5.6l-1.5-0.6c-2.1,3.5-5.9,5.3-10,5.3s-14.4-2.4-14.4-16.5c0-8.5,3.5-15.3,12.4-15.3
		c4.4,0,9.1,1.8,10.9,6.5h2.1L74.4,430.7z"/>
</g>
</svg>
