<svg xmlns="http://www.w3.org/2000/svg" viewBox="0 19 720 340"><g fill="#FEBE10"><path d="M113.8 117.3c-2.1 0-4.1.5-5.4 1.6-1 .8-1.5 1.9-1.5 2.9.6 9.4 31.9 26.6 64.2 43.4 17.1 8.8 34.4 17 47.6 23.2 2.8-2.5 5.7-4.9 8.8-7.2-31.4-22.2-93-63.5-113.7-63.9M62.3 182.3c-2.3 0-4.3.2-5.9.5-2 .5-3.7 1.4-4.4 2.8-.6 1-.5 2.1.1 3.1 5.3 8.6 43.3 17.6 82.1 25.8 20.4 4.2 40.8 8 56.3 10.6 1.4-3 3-6 4.7-8.9-37.4-12.3-106.7-33.9-132.9-33.9M85.9 252.7c-24 0-43.9 1.3-50.8 5.1-1.6.9-2.8 2.2-2.7 3.7 0 1.1.6 2.1 1.6 2.9 6.2 4.6 25.8 5.9 50.1 5.9 12.5 0 26.2-.3 39.9-.8 21.4-.8 42.5-2.1 58.4-3.2-.1-1.7-.2-3.3-.2-5 0-1.5.1-2.9.2-4.4-25.6-1.9-64.6-4.2-96.5-4.2M629.7 252.8c-12.5 0-26.1.4-39.9.8-21.7.8-43.1 2.1-59.1 3.2.1 1.5.2 3 .2 4.5 0 1.6-.1 3.2-.2 4.9 25.6 1.8 65 4.2 97.1 4.2 24 0 43.9-1.3 50.8-5 1.6-.9 2.8-2.2 2.7-3.7 0-1.1-.6-2.1-1.6-2.9-6-4.7-25.7-6-50-6M651 182.3c-16.6 0-47.9 8.3-79.2 17.3-19.9 5.8-39.3 12-53.7 16.8 1.7 2.9 3.3 5.8 4.7 8.8 43.6-7.4 127.5-23.3 138.4-35.4 1.1-1.2 1.5-2.7.7-4.1-.5-1-1.6-1.8-3-2.4-2-.7-4.7-1-7.9-1M600.3 117.4c-14.2 0-43.5 17.5-72.4 35.7-15.7 10.1-30.8 20.4-42 28.2 3.1 2.3 6 4.7 8.8 7.2 37.3-17.2 108.1-51.7 112.3-65.6.4-1.4 0-2.9-1.3-4-1-.8-2.5-1.4-4-1.5h-1.4M516 68.8c-.4 0-.9 0-1.3.1-13.3 2.1-32.8 26.1-51.4 50.7-9.7 13.1-18.7 26.2-25.2 36.2 4 1.5 8 3.1 11.8 4.7 26.5-24.9 75.6-73.8 72.6-87.8-.4-1.4-1.4-2.7-3.2-3.4-1-.3-2.1-.5-3.3-.5M412.3 43c-1.2 0-2.4.2-3.4.7-11.5 5.1-17.8 32.2-23 59.7-2.6 14.5-4.4 29-5.6 39.9 4.6.4 9.1 1 13.6 1.6 12.4-29.6 34-86.9 24.2-99.3-1-1.3-2.7-2.2-4.8-2.5-.3-.1-.7-.1-1-.1M301.7 43c-.3 0-.7 0-1.1.1-1.6.2-2.9.8-3.9 1.6-8.3 7.5-.6 34.4 8.3 61.5 4.8 14.2 10.3 28.2 14.7 38.7 4.5-.7 9-1.2 13.6-1.6-3.2-30.8-11.5-89.6-26.9-98.9-1.4-.9-3-1.4-4.7-1.4M197.9 68.8c-1.1 0-2.2.2-3.1.6-1.4.5-2.4 1.4-2.9 2.4-4.1 9 16.6 32.5 38.6 55.8 11.7 12.2 23.8 24 33.1 32.9 3.9-1.7 7.9-3.3 11.9-4.7-18.4-28.2-55.6-81.4-74.8-86.6-.9-.3-1.9-.4-2.8-.4M357 41c-22.2 0-3.8 177.6-1.7 187.5.6 3.1 1.3 4.4 1.8 4.4s1.2-1.3 1.8-4.4c2-9.9 20.2-187.5-1.9-187.5M247.6 54.2c-.3 0-.6 0-1 .1-20.8 5.2 85.4 167.7 92.3 176.6 2 2.6 3.3 3.7 3.8 3.7h.1c.5-.1.5-1.5-.5-4.5-3.1-9.7-72.8-175.9-94.7-175.9M151.7 92.1c-.8 0-1.5.2-2.1.5-17 9.8 164.1 137.7 175 144.4 3 1.8 4.6 2.6 5.3 2.6h.2c.4-.2-.3-1.5-2.7-4.1-7.5-8.4-151.1-143.4-175.7-143.4M81.8 150c-2.1 0-3.6.4-4.3 1.2-11.1 13.1 223.1 91 236.7 94.8 3.1.9 5 1.2 5.9 1.2.3 0 .5 0 .6-.1.2-.3-1-1.3-4.6-3.2C305.3 238 114.4 150 81.8 150M55.4 220c-9.7 0-15.6.9-16.1 3.1-3.9 14.9 255.2 33.4 269.9 33.7h2c3.1 0 4.5-.2 4.5-.5.1-.4-1.6-1-5.9-2-12-2.5-197.9-34.3-254.4-34.3M658.4 220.1c-56.6 0-242.3 31.9-254.3 34.5-4.3 1-6 1.7-6 2 .1.2 1.4.5 4.4.5h2.2c14.7-.4 273.7-19 269.9-33.8-.6-2.3-6.5-3.2-16.2-3.2M632 150.1c-32.7 0-223.3 88.1-234.2 93.9-3.6 1.9-4.9 3-4.6 3.3.1.1.2.1.5.1.9 0 2.8-.4 5.9-1.2 13.6-3.8 247.7-81.8 236.7-94.9-.7-.8-2.1-1.2-4.3-1.2M562.2 92.1c-24.8 0-168.1 135.1-175.6 143.4-2.4 2.6-3.1 3.9-2.7 4.2h.2c.6 0 2.3-.7 5.3-2.6 10.9-6.7 191.8-134.8 174.9-144.5-.5-.3-1.2-.5-2.1-.5M466.3 54.2c-22 0-91.5 166.2-94.5 175.9-.9 3.1-.9 4.4-.4 4.5h.1c.5 0 1.8-1.1 3.8-3.7 6.9-8.9 112.8-171.5 92.1-176.6-.4-.1-.7-.1-1.1-.1"/></g><path fill="#808184" d="M636 327.7c1.9 0 3.7-.2 5.5-.2 1.9 0 3.7.2 5.6.2v-1.1c-2.7-.6-2.9-2.1-2.9-4.3V312c1.3 0 2.4 1.4 3.1 2.2l8.7 10.1c.6.7.8 1.2.8 1.7-.1.4-.2.6-.6.6v1.1c1.7 0 3.4-.2 5.2-.2 1.7 0 3.5.2 5.2.2v-1.1c-1.4-.3-3.2-2-4-2.9l-10.5-12.2c4.6-1.1 9.4-4.5 9.4-9.8 0-5.6-4.6-10.3-14-10.3-3.9 0-5.5.2-7 .2-1.7 0-3.4-.2-5.1-.2v1.1c2.7.5 2.9 1.8 2.9 4.3 0 4.4.3 8.9.3 13.4v13.4c0 1.8-.8 2.6-2.6 3v1.1zm8.4-33c0-1.3 1.5-1.5 2.8-1.5 5.7 0 7.9 4.3 7.9 9.1 0 5-4.1 8.2-8.9 8.2-.6 0-1.2-.1-2-.2l.2-15.6zm-56.8 32.8h20c.8 0 1.7.1 2.4.2.8.2 1.7.4 2.5.7l1.8-6.4-1.6-.8c-2.4 3.3-3.8 3.9-7.6 3.9h-8.9v-14.6h7.9c3 0 4 .2 5.2 3.8h1.8c0-1.5-.2-3-.2-4.6 0-1.5.2-3 .2-4.5h-1.7c-1.3 2.6-2.2 2.8-5.3 2.8h-7.9v-14h9.1c2.9 0 4.1 1.9 5 4.4h2c0-1.3-.2-2.6-.2-3.9 0-1.3.2-2.6.2-3.9-.9.3-2.7.8-4.1.8h-20.6v1.1c1.6.3 2.6 1.2 2.6 2.5 0 4.6.4 12.1.4 19.2v8.8c0 1.7-1 3-3 3.2v1.3zm-21.3-36.8c-1.2.5-3.5.8-5 .8h-23c-1 0-2-.1-3-.2l-3-.6v7.4h2c.5-3.1 2.1-4 5.1-4h7c.1 4.5.5 11.9.5 19.4v8.2c0 3-.7 4.2-3.1 5v1.1c2 0 4-.2 6-.2s4 .2 6 .2v-1.1c-2.3-.7-3.3-1.7-3.3-5v-11.1c0-6.3.3-12 .3-16.5h6.6c3 0 4.5.9 5.1 4h2v-7.4zm-92.9 37c1.7 0 3.4-.2 5.1-.2 1.7 0 3.4.2 5.2.2v-1.1c-2.5-.6-3.8-2.5-3.8-6.6l-.2-19.9 25.9 28.2h1.8l.2-29.4c0-4.2 1.2-6 3.4-6.5v-1.1c-1.7 0-3.5.2-5.2.2-1.7 0-3.4-.2-5.2-.2v1.1c2.5.4 3.9 1.9 3.9 8.3v17.9L479 290.7h-2.2l-.2 30.9c0 2.9-1.2 4.5-3.2 5v1.1zm-47.7-.2h20c.8 0 1.7.1 2.5.2.8.2 1.7.4 2.4.7l1.8-6.4-1.6-.8c-2.3 3.3-3.8 3.9-7.6 3.9h-8.9v-14.6h7.9c3 0 4 .2 5.2 3.8h1.8c0-1.5-.2-3-.2-4.6 0-1.5.2-3 .2-4.5h-1.7c-1.3 2.6-2.2 2.8-5.3 2.8h-7.9v-14h9.1c2.9 0 4.1 1.9 5 4.4h2c0-1.3-.2-2.6-.2-3.9 0-1.3.2-2.6.2-3.9-.9.3-2.7.8-4.1.8h-20.6v1.1c1.6.3 2.6 1.2 2.6 2.5 0 4.6.4 12.1.4 19.2v8.8c0 1.7-1 3-3 3.2v1.3zm-22-34.7c-3.7-.9-6.3-2.1-13.1-2.1-11.7 0-20 7.9-20 18.7 0 9.4 6.8 19 22.4 19 3.4 0 6-.4 10.2-1.2l1.6-5.8-1.6-.7c-2.3 3.7-6.1 5.5-10.3 5.5-4.3 0-15-2.5-15-17.2 0-8.8 3.8-16.1 12.8-16.1 4.5 0 9.6 1.9 11.2 6.8h2.2l-.4-6.9zm-115.9 34.9c1.9 0 3.6-.2 5.5-.2s3.7.2 5.6.2v-1.1c-2.7-.6-2.9-2.1-2.9-4.3V312c1.3 0 2.3 1.4 3.1 2.2l8.7 10.1c.6.7.8 1.2.8 1.7-.1.4-.2.6-.6.6v1.1c1.7 0 3.4-.2 5.2-.2s3.5.2 5.2.2v-1.1c-1.4-.3-3.2-2-4-2.9l-10.5-12.2c4.6-1.1 9.4-4.5 9.4-9.8 0-5.6-4.6-10.3-14-10.3-3.9 0-5.5.2-7 .2-1.7 0-3.4-.2-5.1-.2v1.1c2.7.5 2.9 1.8 2.9 4.3 0 4.4.3 8.9.3 13.4v13.4c0 1.8-.8 2.6-2.6 3v1.1zm8.4-33c0-1.3 1.5-1.5 2.8-1.5 5.7 0 7.9 4.3 7.9 9.1 0 5-4.1 8.2-8.9 8.2-.6 0-1.3-.1-2-.2l.2-15.6zm-56.8 32.8h20c.8 0 1.7.1 2.5.2.8.2 1.7.4 2.5.7l1.8-6.4-1.6-.8c-2.3 3.3-3.8 3.9-7.6 3.9h-9v-14.6h7.9c3 0 4 .2 5.2 3.8h1.8c0-1.5-.2-3-.2-4.6 0-1.5.2-3 .2-4.5h-1.7c-1.3 2.6-2.2 2.8-5.3 2.8H248v-14h9.1c2.9 0 4.1 1.9 5 4.4h2c0-1.3-.2-2.6-.2-3.9 0-1.3.2-2.6.2-3.9-.9.3-2.7.8-4.1.8h-20.6v1.1c1.6.3 2.6 1.2 2.6 2.5 0 4.6.4 12.1.4 19.2v8.8c0 1.7-1 3-3 3.2v1.3zm-22-34.7c-3.7-.9-6.3-2.1-13.1-2.1-11.7 0-20 7.9-20 18.7 0 9.4 6.8 19 22.4 19 3.4 0 6-.4 10.2-1.2l1.6-5.8-1.6-.7c-2.3 3.7-6.1 5.5-10.3 5.5-4.3 0-15-2.5-15-17.2 0-8.8 3.8-16.1 12.8-16.1 4.5 0 9.6 1.9 11.2 6.8h2.2l-.4-6.9zm-91.6 34.9c1.7 0 3.4-.2 5.1-.2 1.7 0 3.4.2 5.2.2v-1.1c-2.5-.6-3.8-2.5-3.8-6.6l-.2-19.9 25.9 28.2h1.8l.2-29.4c0-4.2 1.1-6 3.4-6.5v-1.1c-1.7 0-3.5.2-5.2.2-1.7 0-3.4-.2-5.2-.2v1.1c2.5.4 3.9 1.9 3.9 8.3v17.9l-25.5-28.1h-2.2l-.2 30.9c0 2.9-1.2 4.5-3.2 5v1.3zm-43.7-13.1l5.1-13.7 5.3 13.7H82.1zm11.3 2.5l1.8 4.8c.4 1 .6 1.9.6 2.7 0 1.2-.6 1.9-1.7 1.9v1.1c1.8 0 3.5-.2 5.3-.2 1.8 0 3.5.2 5.3.2v-1.1c-1.9-.2-2.3-1.9-4.2-6.6L89 290.7h-.6l-11.1 28.1c-1 2.5-3 7.4-5.1 7.8v1.1c1.5 0 3-.2 4.5-.2s3 .2 4.5.2v-1.1c-1.3 0-1.9-1-1.9-2.2 0-.6.1-1.7.4-2.6l1.4-4.6h12.3zm-42.6-24.3c-3.7-.9-6.3-2.1-13.1-2.1-11.7 0-20 7.9-20 18.7 0 9.4 6.8 19 22.4 19 3.4 0 6-.4 10.2-1.2l1.6-5.8-1.6-.7c-2.3 3.7-6.1 5.5-10.3 5.5-4.3 0-15-2.5-15-17.2 0-8.8 3.8-16.1 12.8-16.1 4.5 0 9.6 1.9 11.2 6.8h2.2l-.4-6.9z"/><path fill="#231F20" d="M636.7 259.7c0 5.6-2.4 10.7-9.6 10.7v3.2c5.5 0 11.1-.7 16.8-.7 6.4 0 12.1.7 17.1.7v-3.2c-6.8 0-9.2-5.2-9.2-10.7v-47.1l17.7-26.7c7.2-10.7 23.4-30.8 32.8-34v-3.2c-4.9 0-9.8.7-14.7.7-4.9 0-9.8-.7-14.7-.7v3.2c3 .4 6.2 1.1 6.2 4.7 0 1.3-1.3 4.5-4.3 8.8L646.7 208l-27.3-43.7c-1.7-2.9-2.5-5.5-2.5-6.6 0-3.2 2.5-4.8 6.8-5.7v-3.2c-5.8 0-11.7.7-17.5.7-5.8 0-11.7-.7-17.5-.7v3.2c5.5 2.1 10.5 6.3 14.7 12.9l33.3 51.2v43.6zm-59.2-113.1h-3.4c-.9 1.8-2.1 2.9-6.2 2.9h-75v3.2c9.8.4 10.5 1.8 10.5 57.3v49.7c0 7.9-2.8 10.4-10.5 10.7v2.5h60.6c6 0 10.7 0 14.5.4 4 .2 7.3.5 10.5 1.2l2.8-19.5-3-.5c-3.4 7.2-8.7 12.3-20.7 12.3h-39.2v-54.2h33c10.5 0 14.1 2.3 16.2 8.9h3.4c-.2-3.9-.6-8.1-.6-12.2s.4-8.2.6-12h-3.4c-2.1 6.8-5.6 9.1-16.2 9.1h-33v-18.1c0-10.6.4-25 1.5-32.9h29.4c15.8 0 22.8 4.7 24.7 12.7h3.4v-21.5zm-99 22.6l-.8-20c-9.8.4-19.2-2.5-29-2.5-24.7 0-46.1 10.6-46.1 36.5 0 46.2 66.5 26.3 66.5 64.2 0 15.7-13 22.7-27.9 22.7-12.6 0-27.7-5.4-32-18.1h-3.4l.8 18.6c11.7 3.2 23.3 5.2 34.8 5.2 23.2 0 40.9-12.2 40.9-35.4 0-42.8-66.5-25.8-66.5-64.2 0-16.3 14.7-23.8 29.9-23.8 11.9 0 25.4 5.2 29.4 16.8h3.4zm-91.8 0l-.7-20c-9.8.4-19.2-2.5-29-2.5-24.7 0-46.1 10.6-46.1 36.5 0 46.2 66.5 26.3 66.5 64.2 0 15.7-13 22.7-27.9 22.7-12.6 0-27.7-5.4-32-18.1H314l.8 18.6c11.7 3.2 23.3 5.2 34.8 5.2 23.2 0 40.9-12.2 40.9-35.4 0-42.8-66.5-25.8-66.5-64.2 0-16.3 14.7-23.8 29.9-23.8 11.9 0 25.4 5.2 29.4 16.8h3.4zm-141.9 3l22.2 58.3h-47.3l25.1-58.3zm24.6 65.7l7.3 18.8c.9 2.5 2.1 4.8 2.1 7.7 0 2.1-4.1 4.5-6.6 6.1v3.2c5.6 0 11.3-.7 17-.7s11.3.7 16.9.7v-3.2c-9-3.2-11.7-6.4-14.9-15l-40.9-108.8h-3.2l-45.6 108.8c-3.4 7.9-4.7 12.2-14.1 15v3.2c5.8 0 10.7-.7 15.6-.7 4.7 0 9.6.7 14.3.7v-3.2c-4.7-1.6-8.1-3.9-8.1-7.2 0-1.8 0-6.3 1.3-9.7l6-15.7h52.9zM45.6 146.6h-3.4L35 249.7c-1.1 15.6-2.6 18.6-12.6 20.8v3.2c5.5 0 10.7-.7 16.2-.7 5.7 0 11.1.7 16.4.7v-3.2c-6.4-.7-11.7-5-11.7-17.5 0-4.7 0-12.9.4-17.5l3.6-56.2h.9l54.4 90.5 46.7-90.4h.8l3.8 63.5c.2 2.9.6 8.6.6 15.4 0 6.4-1.5 11.6-9.4 12.2v3.2c4.7 0 10.4-.7 15.8-.7 6.6 0 12.2.7 17.7.7v-3.2c-8.3-1.3-9.4-2.9-10.2-17.4l-5.5-106.5h-3.2L107 249.2 45.6 146.6z"/></svg>