<svg xmlns="http://www.w3.org/2000/svg" viewBox="0 19 720 481"><g fill="#FEBE10"><path d="M120.6 125.1c-2.1 0-4.1.6-5.6 1.8-1.2.9-1.5 2.1-1.5 2.9.6 9.4 32.4 27.1 65.3 44.1 17.4 8.8 35 17.4 48.5 23.5 2.9-2.6 5.9-5 9.1-7.4-32.3-22.2-94.9-64.3-115.8-64.9M68 191.3c-2.4 0-4.4.3-5.9.6-2.1.6-3.8 1.5-4.4 2.9-.6 1.2-.6 2.1 0 3.2 5.3 8.8 44.1 17.9 83.5 26.2 20.9 4.4 41.5 8.2 57.4 10.9 1.5-2.9 2.9-6.2 4.7-9.1-38-12.6-108.6-34.7-135.3-34.7M92.1 263.1c-24.4 0-44.7 1.2-51.8 5-1.8.9-2.9 2.4-2.6 3.8 0 1.2.6 2.1 1.5 2.9 6.2 4.7 26.2 5.9 50.9 5.9 12.6 0 26.8-.3 40.6-.9 21.8-.9 43.2-2.1 59.4-3.2 0-1.8-.3-3.5-.3-5s0-2.9.3-4.4c-25.7-1.8-65.7-4.1-98-4.1M645.3 263.1c-12.6 0-26.5.3-40.6.9-22.1.9-43.8 2.1-60 3.2 0 1.5.3 2.9.3 4.4 0 1.8 0 3.2-.3 5 25.9 1.8 66.2 4.1 98.8 4.1 24.4 0 44.7-1.2 51.8-5 1.8-.9 2.9-2.4 2.9-3.8 0-1.2-.6-2.1-1.8-2.9-6.1-4.5-26.1-5.9-51.1-5.9M667.1 191.3c-16.8 0-48.8 8.5-80.6 17.6-20.3 5.9-40 12.1-54.7 17.1 1.8 2.9 3.2 5.9 4.7 8.8 44.4-7.6 129.7-23.8 140.9-35.9 1.2-1.2 1.5-2.6.9-4.1-.6-1.2-1.8-1.8-2.9-2.4-2.1-.8-5.1-1.1-8.3-1.1M615.6 125.4c-14.4 0-44.4 17.6-73.8 36.5-15.9 10.3-31.5 20.6-42.6 28.8 3.2 2.4 6.2 4.7 8.8 7.4 37.9-17.6 110-52.6 114.1-66.8.3-1.5 0-2.9-1.5-4.1-.9-.9-2.6-1.5-4.1-1.5 0-.3-.6-.3-.9-.3M529.7 76h-1.5c-13.5 2.1-33.2 26.5-52.4 51.8-10 13.2-19.1 26.8-25.6 36.8 4.1 1.5 8.2 3.2 12.1 4.7 27.1-25.3 76.8-75 73.8-89.4-.3-1.5-1.5-2.6-3.2-3.5-.8-.4-2-.4-3.2-.4M424.1 49.5c-1.2 0-2.4.3-3.5.6-11.8 5.3-18.2 32.6-23.2 60.9-2.6 14.7-4.4 29.4-5.6 40.6 4.7.6 9.4.9 13.8 1.8 12.6-30.3 34.7-88.5 24.7-101.2-1.2-1.2-2.6-2.4-5-2.6-.3-.1-.9-.1-1.2-.1M311.8 49.5h-1.2c-1.5.3-2.9.9-4.1 1.5-8.5 7.6-.6 35 8.5 62.6 5 14.4 10.6 28.5 15 39.4 4.4-.6 9.1-1.2 13.8-1.8-3.2-31.5-11.8-91.2-27.4-100.6-1.4-.5-2.8-1.1-4.6-1.1M205.9 76c-1.2 0-2.4.3-3.2.6-1.5.6-2.4 1.5-2.9 2.4-4.1 9.1 17.1 32.9 39.1 56.8 11.8 12.4 24.1 24.4 33.8 33.5 3.8-1.8 7.9-3.2 12.1-4.7-18.8-28.8-56.5-82.9-76.2-88.2-.6-.4-1.5-.4-2.7-.4M368 47.8c-22.6 0-3.8 180.6-1.8 190.9.6 3.2 1.5 4.4 1.8 4.4.6 0 1.2-1.2 1.8-4.4 2-10.3 20.5-190.9-1.8-190.9M256.8 61h-.9c-21.2 5.3 86.8 170.6 93.8 179.7 2.1 2.6 3.2 3.8 3.8 3.8.6 0 .6-1.5-.6-4.7C350 230.1 278.8 61 256.8 61M159.1 99.5c-.9 0-1.5.3-2.1.6-17.4 10 167.1 140 178.2 147.1 2.9 1.8 4.7 2.6 5.3 2.6h.3c.3-.3-.3-1.5-2.6-4.1-7.9-8.8-154.1-146.2-179.1-146.2M88 158.6c-2.1 0-3.5.3-4.4 1.2-11.2 13.2 227.1 92.6 240.9 96.5 3.2.9 5 1.2 5.9 1.2h.6c.3-.3-1.2-1.5-4.7-3.2-11-6.2-205.1-95.7-238.3-95.7M61.2 229.8c-10 0-15.9.9-16.5 3.2-3.8 15.3 259.7 33.8 274.7 34.4h2.1c3.2 0 4.4-.3 4.7-.6 0-.3-1.8-1.2-6.2-2.1-12.3-2.5-201.4-34.9-258.8-34.9M674.7 229.8c-57.6 0-246.5 32.4-258.8 35-4.4.9-6.2 1.8-6.2 2.1 0 .3 1.5.6 4.4.6h2.4c15-.3 278.5-19.4 274.7-34.4-.6-2.4-6.8-3.3-16.5-3.3M647.7 158.6c-33.2 0-227.4 89.7-238.2 95.6-3.5 2.1-5 2.9-4.7 3.2h.6c.9 0 2.9-.3 5.9-1.2 13.8-3.8 252.1-83.2 240.9-96.5-.7-.8-2.2-1.1-4.5-1.1M576.8 99.5c-25.3 0-170.9 137.4-178.5 145.9-2.4 2.6-3.2 4.1-2.6 4.1h.3c.6 0 2.4-.9 5.3-2.6 11.2-6.8 195.3-137.1 177.9-147.1-.9 0-1.5-.3-2.4-.3M479.1 61c-22.4 0-92.9 169.1-96.2 179.1-.9 3.2-.9 4.4-.6 4.7.6 0 1.8-1.2 3.8-3.8 7.1-9.1 114.7-174.4 93.8-179.7.1-.3-.5-.3-.8-.3"/></g><path d="M636.2 399.2c0 5.3-2.4 10.3-9.1 10.3v2.9c5.3 0 10.6-.6 16.2-.6 6.2 0 11.5.6 16.5.6v-2.9c-6.5 0-8.8-5-8.8-10.3v-45.3l17.1-25.6c6.8-10.3 22.4-29.4 31.5-32.6v-2.9c-4.7 0-9.4.6-14.1.6-4.7 0-9.4-.6-14.1-.6v2.9c2.9.3 5.9 1.2 5.9 4.4 0 1.2-1.2 4.4-4.1 8.5l-26.8 40.9-26.4-41.7c-1.8-2.6-2.4-5.3-2.4-6.5 0-2.9 2.4-4.7 6.5-5.6v-2.9c-5.6 0-11.2.6-16.8.6-5.6 0-11.2-.6-16.8-.6v2.9c5.3 2.1 10 5.9 14.1 12.4l32.1 49.1v42.1h-.5zm-56.8-108.5h-3.2c-.9 1.8-2.1 2.6-5.9 2.6h-71.8v2.9c9.4.3 10 1.8 10 55v47.6c0 7.6-2.6 10-10 10.3v2.4h58.2c5.9 0 10.3 0 13.8.3 3.8.3 7.1.6 10 1.2l2.6-18.8-2.9-.6c-3.2 6.8-8.2 11.8-20 11.8H523v-51.5h31.5c10 0 13.5 2.4 15.6 8.5h3.2c-.3-3.8-.6-7.6-.6-11.8 0-3.8.3-7.9.6-11.5H570c-2.1 6.5-5.3 8.8-15.6 8.8H523v-17.4c0-10 .3-24.1 1.5-31.5h28.2c15.3 0 21.8 4.4 23.5 12.1h3.2v-20.4zm-95 21.5l-.6-19.1c-9.4.3-18.5-2.4-27.9-2.4-23.5 0-44.1 10-44.1 35 0 44.1 63.8 25.3 63.8 61.5 0 15-12.4 21.8-26.8 21.8-12.1 0-26.5-5.3-30.6-17.4H415l.6 17.9c11.2 2.9 22.4 5 33.5 5 22.4 0 39.1-11.8 39.1-33.8 0-40.9-63.8-24.7-63.8-61.5 0-15.6 14.1-22.9 28.8-22.9 11.5 0 24.4 5 28.2 16.2h2.9v-.3zm-87.9 0l-.6-19.1c-9.4.3-18.5-2.4-27.9-2.4-23.5 0-44.1 10-44.1 35 0 44.1 63.8 25.3 63.8 61.5 0 15-12.4 21.8-26.8 21.8-12.1 0-26.5-5.3-30.6-17.4h-3.2l.6 17.9c11.2 2.9 22.4 5 33.5 5 22.4 0 39.1-11.8 39.1-33.8 0-40.9-63.8-24.7-63.8-61.5 0-15.6 14.1-22.9 28.8-22.9 11.5 0 24.4 5 28.2 16.2h2.9v-.3zm-136.2 2.9l21.2 55.9h-45.3l24.1-55.9zm23.5 63l7.1 17.9c.9 2.4 2.1 4.7 2.1 7.4 0 2.1-4.1 4.4-6.2 5.9v2.9c5.3 0 10.9-.6 16.2-.6 5.3 0 10.9.6 16.2.6v-2.9c-8.5-2.9-11.2-6.2-14.4-14.4l-39.1-104.4h-2.9L219 395.2c-3.2 7.6-4.4 11.8-13.5 14.4v2.9c5.6 0 10.3-.6 15-.6 4.4 0 9.1.6 13.8.6v-2.9c-4.4-1.5-7.6-3.8-7.6-6.8 0-1.8 0-5.9 1.2-9.1l5.9-15h50.3v-.6zM69.4 290.7h-3.2l-6.8 98.8c-1.2 15-2.6 17.9-12.1 20v2.9c5.3 0 10.3-.6 15.6-.6 5.3 0 10.6.6 15.6.6v-2.9c-6.2-.6-11.2-4.7-11.2-16.8 0-4.4 0-12.4.3-16.8l3.5-53.8h.9l52.1 86.8 44.7-86.8h.6l3.5 60.9c.3 2.6.6 8.2.6 14.7 0 6.2-1.5 11.2-9.1 11.8v2.9c4.4 0 10-.6 15.3-.6 6.2 0 11.8.6 17.1.6v-2.9c-7.9-1.2-9.1-2.6-9.7-16.8l-5.3-102.1h-2.9l-50.6 98.2-58.9-98.1z"/><path fill="#808285" d="M635.6 464.2c1.8 0 3.5-.3 5.3-.3 1.8 0 3.5.3 5.3.3V463c-2.6-.6-2.9-2.1-2.9-4.1v-10c1.2 0 2.4 1.2 2.9 2.1l8.2 9.7c.6.6.9 1.2.9 1.5s-.3.6-.6.6v1.2c1.8 0 3.2-.3 5-.3 1.8 0 3.2.3 5 .3v-1.2c-1.5-.3-2.9-1.8-3.8-2.9l-10-11.8c4.4-1.2 9.1-4.4 9.1-9.4 0-5.3-4.4-10-13.5-10-3.8 0-5.3.3-6.8.3s-3.2-.3-4.7-.3v1.2c2.6.6 2.9 1.8 2.9 4.1 0 4.1.3 8.5.3 12.9v12.9c0 1.8-.9 2.4-2.6 2.9v1.5zm8-31.4c0-1.2 1.5-1.5 2.6-1.5 5.6 0 7.6 4.1 7.6 8.8s-3.8 7.9-8.5 7.9c-.6 0-1.2 0-2.1-.3l.4-14.9zm-54.5 31.4h19.1c.9 0 1.5 0 2.4.3s1.5.3 2.4.6l1.8-6.2-1.5-.9c-2.4 3.2-3.5 3.8-7.4 3.8h-8.5v-14.1h7.6c2.9 0 3.8.3 5 3.5h1.8c0-1.5-.3-2.9-.3-4.4s.3-2.9.3-4.4h-1.5c-1.2 2.4-2.1 2.6-5 2.6h-7.6v-13.2h8.8c2.6 0 3.8 1.8 4.7 4.1h1.8c0-1.2-.3-2.4-.3-3.8 0-1.5.3-2.4.3-3.8-.9.3-2.6.9-3.8.9h-19.7v1.2c1.5.3 2.4 1.2 2.4 2.4 0 4.4.3 11.5.3 18.5v8.5c0 1.8-.9 2.9-2.9 2.9v1.5zm-20.5-35.3c-1.2.6-3.2.9-4.7.9h-22.1c-.9 0-2.1 0-2.9-.3-.9-.3-2.1-.3-2.9-.6v7.1h1.8c.6-2.9 2.1-3.8 4.7-3.8h6.8c0 4.4.6 11.5.6 18.5v7.9c0 2.9-.6 4.1-2.9 4.7v1.2c2.1 0 3.8-.3 5.9-.3 1.8 0 3.8.3 5.9.3v-1.2c-2.1-.6-3.2-1.8-3.2-4.7V448c0-5.9.3-11.5.3-15.9h6.2c2.9 0 4.4.9 4.7 3.8h1.8v-7.1zm-88.9 35.3c1.8 0 3.2-.3 5-.3s3.2.3 5 .3V463c-2.4-.6-3.5-2.4-3.5-6.2l-.3-19.1 25 27.1h1.8l.3-28.2c0-4.1 1.2-5.9 3.2-6.2v-1.2c-1.8 0-3.2.3-5 .3-1.8 0-3.2-.3-5-.3v1.2c2.4.3 3.8 1.8 3.8 7.9v17.1l-24.4-26.8h-2.1l-.3 29.7c0 2.9-1.2 4.4-3.2 4.7v1.2h-.3zm-45.9 0H453c.9 0 1.5 0 2.4.3s1.5.3 2.4.6l1.8-6.2-1.5-.9c-2.4 3.2-3.5 3.8-7.4 3.8h-8.5v-14.1h7.6c2.9 0 3.8.3 5 3.5h1.8c0-1.5-.3-2.9-.3-4.4s.3-2.9.3-4.4H455c-1.2 2.4-2.1 2.6-5 2.6h-7.6v-13.2h8.8c2.6 0 3.8 1.8 4.7 4.1h1.8c0-1.2-.3-2.4-.3-3.8 0-1.5.3-2.4.3-3.8-.9.3-2.6.9-3.8.9h-19.7v1.2c1.5.3 2.4 1.2 2.4 2.4 0 4.4.3 11.5.3 18.5v8.5c0 1.8-.9 2.9-2.9 2.9v1.5zm-21.1-33.5c-3.5-.9-6.2-2.1-12.6-2.1-11.2 0-19.1 7.6-19.1 17.9 0 9.1 6.5 18.2 21.5 18.2 3.2 0 5.9-.3 9.7-1.2l1.5-5.6-1.5-.6c-2.1 3.5-5.9 5.3-10 5.3s-14.4-2.4-14.4-16.5c0-8.5 3.5-15.3 12.4-15.3 4.4 0 9.1 1.8 10.9 6.5h2.1l-.5-6.6zm-111.2 33.5c1.8 0 3.5-.3 5.3-.3 1.8 0 3.5.3 5.3.3V463c-2.6-.6-2.9-2.1-2.9-4.1v-10c1.2 0 2.4 1.2 2.9 2.1l8.2 9.7c.6.6.9 1.2.9 1.5s-.3.6-.6.6v1.2c1.8 0 3.2-.3 5-.3s3.2.3 5 .3v-1.2c-1.5-.3-2.9-1.8-3.8-2.9l-10-11.8c4.4-1.2 9.1-4.4 9.1-9.4 0-5.3-4.4-10-13.5-10-3.8 0-5.3.3-6.8.3s-3.2-.3-4.7-.3v1.2c2.6.6 2.9 1.8 2.9 4.1 0 4.1.3 8.5.3 12.9v12.9c0 1.8-.9 2.4-2.6 2.9v1.5zm8.2-31.4c0-1.2 1.5-1.5 2.6-1.5 5.6 0 7.6 4.1 7.6 8.8s-3.8 7.9-8.5 7.9c-.6 0-1.2 0-2.1-.3l.4-14.9zM255 464.2h19.1c.9 0 1.5 0 2.4.3s1.5.3 2.4.6l1.8-6.2-1.5-.9c-2.4 3.2-3.5 3.8-7.4 3.8h-8.5v-14.1h7.6c2.9 0 3.8.3 5 3.5h1.8c0-1.5-.3-2.9-.3-4.4s.3-2.9.3-4.4h-1.8c-1.2 2.4-2.1 2.6-5 2.6h-7.6v-13.2h8.8c2.6 0 3.8 1.8 4.7 4.1h1.8c0-1.2-.3-2.4-.3-3.8 0-1.5.3-2.4.3-3.8-.9.3-2.6.9-3.8.9H255v1.2c1.5.3 2.4 1.2 2.4 2.4 0 4.4.3 11.5.3 18.5v8.5c0 1.8-.9 2.9-2.9 2.9v1.5h.2zm-20.9-33.5c-3.5-.9-6.2-2.1-12.6-2.1-11.2 0-19.1 7.6-19.1 17.9 0 9.1 6.5 18.2 21.5 18.2 3.2 0 5.9-.3 9.7-1.2l1.5-5.6-1.5-.6c-2.1 3.5-5.9 5.3-10 5.3s-14.4-2.4-14.4-16.5c0-8.5 3.5-15.3 12.4-15.3 4.4 0 9.1 1.8 10.9 6.5h2.1l-.5-6.6zm-87.9 33.5c1.8 0 3.2-.3 5-.3 1.8 0 3.2.3 5 .3V463c-2.4-.6-3.5-2.4-3.5-6.2l-.3-19.1 24.7 27.1h1.8l.3-28.2c0-4.1 1.2-5.9 3.2-6.2v-1.2c-1.8 0-3.2.3-5 .3-1.8 0-3.2-.3-5-.3v1.2c2.4.3 3.8 1.8 3.8 7.9v17.1l-24.4-26.8h-2.4l-.3 29.7c0 2.9-1.2 4.4-3.2 4.7v1.2h.3zm-41.8-12.3l4.7-13.2 5 13.2h-9.7zm10.6 2.3l1.8 4.7c.3.9.6 1.8.6 2.6 0 1.2-.6 1.8-1.8 1.8v1.2c1.8 0 3.2-.3 5-.3 1.8 0 3.2.3 5 .3v-1.2c-1.8-.3-2.4-1.8-4.1-6.2l-10.9-28.2h-.6l-10.6 26.8c-.9 2.4-2.9 7.1-4.7 7.4v1.2c1.5 0 2.9-.3 4.4-.3 1.5 0 2.9.3 4.4.3v-1.2c-1.2 0-1.8-.9-1.8-2.1 0-.6 0-1.8.3-2.6l1.5-4.4H115v.2zm-40.6-23.5c-3.5-.9-6.2-2.1-12.6-2.1-11.2 0-19.1 7.6-19.1 17.9 0 9.1 6.5 18.2 21.5 18.2 3.2 0 5.9-.3 9.7-1.2l1.5-5.6-1.5-.6c-2.1 3.5-5.9 5.3-10 5.3s-14.4-2.4-14.4-16.5c0-8.5 3.5-15.3 12.4-15.3 4.4 0 9.1 1.8 10.9 6.5h2.1l-.5-6.6z"/></svg>